<svg width="1200" height="1230" xmlns="http://www.w3.org/2000/svg">
 <metadata id="metadata127">image/svg+xml</metadata>
 <defs>
  <linearGradient id="svg_1" x1="0.32238" y1="1.27337" x2="0.53975" y2="0.21618">
   <stop offset="0" stop-color="#2E2B22"/>
   <stop offset="1" stop-color="#5C636A"/>
  </linearGradient>
 </defs>
 <g>
  <title>Layer 1</title>
  <g id="g3248">
   <g id="Skala">
    <path d="m164.276,1099.48596l244.31396,0l0,-13.55701" id="path6" stroke-linecap="round" stroke-width="3" stroke="#000000" fill="none"/>
    <path d="m316.707,1099.86194l0,12.80396" id="path8" stroke-linecap="round" stroke-width="3" stroke="#000000" fill="none"/>
    <path d="m164.258,1085.65796l0,27.729" id="path10" stroke-linecap="round" stroke-width="3" stroke="#000000" fill="none"/>
    <text font-size="18.1997px" id="text12" font-family="ArialMT" y="1134.07285" x="315.758"/>
    <text font-size="18.1997px" id="text14" font-family="ArialMT" stroke-linecap="round" stroke-width="1.3321" stroke="#000000" fill="none" y="1134.07285" x="315.758"/>
    <text font-size="18.1997px" id="text16" font-family="ArialMT" y="1134.07285" x="283.38499">1000 km</text>
    <text font-size="18.1997px" id="text18" font-family="ArialMT" stroke-linecap="round" stroke-width="1.3321" stroke="#000000" fill="none" y="1134.07285" x="283.38499">1000 km</text>
    <text font-size="18.1997px" id="text20" font-family="ArialMT" y="1134.07285" x="353.189"/>
    <text font-size="18.1997px" id="text22" font-family="ArialMT" stroke-linecap="round" stroke-width="1.3321" stroke="#000000" fill="none" y="1134.07285" x="353.189"/>
    <text font-size="18.2px" id="text24" font-family="ArialMT" y="1078.91294" x="393.58701"/>
    <text font-size="18.2px" id="text26" font-family="ArialMT" stroke-linecap="round" stroke="#000000" fill="none" y="1078.91294" x="393.58701"/>
    <text font-size="18.2px" id="text28" font-family="ArialMT" y="1078.91294" x="363.74">1000 mi</text>
    <text font-size="18.2px" id="text30" font-family="ArialMT" stroke-linecap="round" stroke="#000000" fill="none" y="1078.91294" x="363.74">1000 mi</text>
    <text font-size="18.2px" id="text32" font-family="ArialMT" y="1078.91294" x="428.48902"/>
    <text font-size="18.2px" id="text34" font-family="ArialMT" stroke-linecap="round" stroke="#000000" fill="none" y="1078.91294" x="428.48902"/>
    <text font-size="18.2px" id="text36" font-family="ArialMT" y="1078.67295" x="151.70899"/>
    <text font-size="18.2px" id="text38" font-family="ArialMT" stroke-linecap="round" stroke="#000000" fill="none" y="1078.67295" x="151.70899"/>
    <text font-size="18.2px" id="text40" font-family="ArialMT" y="1078.67295" x="149.176">0</text>
    <text font-size="18.2px" id="text42" font-family="ArialMT" stroke-linecap="round" stroke="#000000" fill="none" y="1078.67295" x="149.176">0</text>
    <text font-size="18.2px" id="text44" font-family="ArialMT" y="1078.67295" x="159.297"/>
    <text font-size="18.2px" id="text46" font-family="ArialMT" stroke-linecap="round" stroke="#000000" fill="none" y="1078.67295" x="159.297"/>
    <text font-size="18.2px" id="text48" font-family="ArialMT" y="1132.65293" x="151.38499"/>
    <text font-size="18.2px" id="text50" font-family="ArialMT" stroke-linecap="round" stroke-width="1.3868" stroke="#000000" fill="none" y="1132.65293" x="151.38499"/>
    <text font-size="18.2px" id="text52" font-family="ArialMT" y="1132.65293" x="148.852">0</text>
    <text font-size="18.2px" id="text54" font-family="ArialMT" stroke-linecap="round" stroke-width="1.3868" stroke="#000000" fill="none" y="1132.65293" x="148.852">0</text>
    <text font-size="18.2px" id="text56" font-family="ArialMT" y="1132.65293" x="158.97401"/>
    <text font-size="18.2px" id="text58" font-family="ArialMT" stroke-linecap="round" stroke-width="1.3868" stroke="#000000" fill="none" y="1132.65293" x="158.97401"/>
   </g>
   <path d="m726.49011,264.61087l131.97198,-3.93799l4.25104,4.202l8.71198,-1.10001l0.901,-7.354l9.664,-2.66899l2.04602,-9.05301l4.24298,1.397l5.33801,-5.569l-2.888,-14.259l4.61798,0.16299l-11.23297,-10l-30.81201,-50.892l-0.13904,-6.17699c-7.29095,-4.78001 -12.68597,-10.826 -15.94196,-18.29602l-0.28601,-4.743l-4.65002,-3.384l1.21399,-7.527l13.81305,18.46c1.23596,1.424 -0.15302,2.448 0.96198,3.993c3.60999,4.99902 9.82599,10.041 13.48999,12.96902c1.87103,-0.62901 4.065,-0.18301 4.99402,-3.95802l3.60297,-23.974l-16.19696,-32.99999c-10.93701,7.653 -21.87299,10.712 -32.81104,-0.68l-13.36597,1.02399c-3.05402,1.313 -6.30499,3.313 -8.06799,0.10699l-21.565,12.60101l-35.71301,-7.95599c-5.36603,-1.103 -11.091,-2.92001 -15.52002,-2.146c-4.54297,2.772 -7.77496,0.63 -11.00598,-1.522c-1.83801,3.193 -3.77502,6.423 -2.013,8.30801l1.44397,13.004c-3.16095,5.095 -6.07794,10.31799 3.91205,22.31799l7.03198,119.65102z" id="Aegypten" stroke-linecap="round" stroke="#000000" fill="#cccccc"/>
   <g id="Aequatorialguinea">
    <path id="path64" d="m501.22101,617.96094l-27.13599,1.31097l-5.42804,-3.55597l8.14203,-15.62701l24.23499,-0.28101l0.18701,18.15302z" stroke-linecap="round" stroke="#000000" fill="#cccccc"/>
    <path id="path66" d="m426.32898,632.19891c0.00098,1.625 -1.315,2.94202 -2.94,2.94202c-1.625,0 -2.94202,-1.31702 -2.94098,-2.94202c-0.00104,-1.625 1.31598,-2.94202 2.94098,-2.94202c1.625,0 2.94098,1.31702 2.94,2.94202z" stroke-linecap="round" stroke="#000000" fill="#cccccc"/>
    <path id="path68" d="m437.73102,608.79291c0,1.29303 -1.04803,2.341 -2.34003,2.341c-1.29297,0 -2.341,-1.04797 -2.341,-2.341c0,-1.29297 1.04803,-2.341 2.341,-2.341c1.29199,0.00098 2.34003,1.04803 2.34003,2.341l0,0z" stroke-linecap="round" stroke="#000000" fill="#cccccc"/>
   </g>
   <path d="m1120.00806,494.08685l-48.203,55.00598l-18.83398,-0.33899c-2.32495,0.646 -11.04199,6.008 -16.04797,10.41498c-4.104,3.61505 -10.43103,5.72302 -16.90601,8.67004c-3.84003,0.021 -8.50201,1.414 -11.19,-0.48401c-6.30304,-6.10901 -13.51703,-3.117 -20.65204,-0.89301c-2.35797,4.34302 -5.578,7.823 -10.94,9.16199l-25.76196,-4.00598c-5.83203,-4.94904 -12.258,-9.54199 -20.23505,-13.20398l-14.31598,-0.992l0.01001,-11.63501l-11.26099,-4.12103l-8.14001,-18.58801l-11.68103,-9.34399c2.17804,-3.48697 -3.53998,-6.36697 -6.44696,-9.46399c-3.95404,0.89102 -7.90802,0.08401 -11.862,-2.04199l3.479,-4.18201l-0.21204,-5.38199l10.263,0.186c2.24103,-1.40701 4.72003,-1.94501 6.35999,-5.55402l-0.29297,-30.159l4.883,-7.681l5.13501,0.18802l2.34198,-12.86902c6.17902,-7.60098 8.36603,-16.88199 18.55798,-22.793l2.67401,-22.31l8.16302,-0.23502l1.133,-2.65601l3.96301,0.069l3.39496,5.64398l4.88904,-12.96997c3.22998,2.07797 7.45001,2.15799 9.33997,6.728l8.24005,-1.612l1.39197,-2.63702l1.47803,-0.31598l1.98895,3.504c2.612,-1.55402 5.85803,-3.20898 10.04803,-0.49597c1.21301,0.51801 2.62701,0.78897 5.75,-1.02805c3.302,1.78302 5.30499,5.42102 9.979,5.24301c10.55096,9.21301 20.77698,18.79599 29.82996,29.72101c-0.81598,0.771 -1.18597,3.68799 -1.78699,10.276l-3.90601,7.008c-3.14697,5.16904 0.66205,9.72803 6.65601,7.58099l5.26398,-2.02301l5.28406,2.16302c-6.37903,7.35397 8.80701,20.15799 22.495,32.94598l49.41394,15.789l16.27209,-0.284l-0.00305,0l0,0.00003z" id="Aethopien" stroke-linecap="round" stroke="#000000" fill="#cccccc"/>
   <path d="m200.98309,137.55885l16.02899,-7.98601l3.31,1.183l5.49001,-4.77l9.218,0.845l0.49899,-4.261c19.07901,0.93301 23.04001,-4.17 26.409,-9.285l15.974,-6.582l5.89801,0.185l-3.08801,-4.086l0.81302,-3.23l-0.129,-5.34801c6.24698,-0.81799 13.95099,0.18501 13.99799,-6.35l25.84399,0.35899l3.58701,-7.432c-4.95398,-1.818 -5.84,-8.981 -5.177,-16.59299c0.49301,-5.651 0.04602,-18.509 0.04602,-18.509c-1.71002,-2.063 -3.84,-4.006 -4.33301,-6.97c1.38199,-0.614 7.86801,0.449 11.806,-4.825c2.02899,-2.719 4.62201,-8.205 8.00699,-7.134c3.95102,1.252 11.521,2.042 11.98401,-0.466c0.495,-2.683 7.82999,-8.587 18.422,-8.552c19.401,0.063 44.46704,-7.318 52.65799,-4.919c8.19,2.399 18.858,-3.188 23.59406,-2.884c4.76898,0.306 6.20697,5.508 12.71298,1.082c2.43201,-1.654 11.21298,5.226 19.58197,2.789c0,0 -4.99701,2.219 -5.27896,7.349c-0.43399,7.901 -1.16602,32.494 -1.16602,32.494c-0.83096,-1.329 -6.77902,-0.332 -7.715,3.682c-1.27103,5.454 -7.409,4.043 -7.89603,6.799c-0.97998,5.546 3.85901,10.64 9.56003,15.615c1.461,1.275 -0.53802,8.339 0.909,9.631c4.41498,3.939 12.241,6.621 12.241,6.621c1.81702,18.073 5.035,30.55399 5.035,30.55399c-8.28201,0.554 -3.85602,8.241 1.72098,16.44701l0.34802,47.00999c0,0 -7.48102,1.517 -6.965,3.44499c1.15997,4.32901 1.43198,7.52901 6.89798,12.396c3.51001,3.123 3.57501,8.39299 3.272,11.854c-0.349,3.99399 3.681,5.80399 4.73401,5.778c8.20801,-0.19801 15.146,-4.19299 22.922,17.24501l-98.328,64.61798c-14.59302,6.285 -38.629,10.04501 -39.45602,9.681c-5.48199,-2.41101 0.87201,-8.44699 -0.96698,-12.48401c-1.841,-4.043 -4.061,-7.08298 -10.30902,-6.40598c-3.32397,0.35999 -5.06799,-3.91501 -6.38397,-3.69702c-5.32001,0.88101 -6.67502,-5.164 -7.85101,-6.23898c-4.66599,-4.26901 -9.29901,-5.51001 -8.23801,-9.39001l-143.694,-109.53699l3.45401,-29.72701l0,0.00002l0,0.00002z" id="Algerien" stroke-linecap="round" stroke="#000000" fill="#cccccc"/>
   <g id="Angola">
    <path id="path73" d="m509.13098,927.45294c3.59003,-0.953 7.47302,-5.71503 10.69403,-1.88898c3.19897,-3.95605 12.08197,-11.78503 26.43994,2.87299l72.14905,-0.987l7.729,6.73804l45.47797,5.88293l28.76599,-6.47693l-19.44397,-17.35303l1.48798,-61.45605l34.69501,1.03003l-3.771,-4.02197l4.086,-32.49902c-0.46698,0.117 -1.00201,-0.12103 -1.45697,0.04401c-8.36304,3.047 -17.25403,2.34302 -26.22504,2.52197l-3.11798,6.11304l-5.68799,-4.79199l6.34198,-8.44806l-8.56201,-17.34698l-1.30798,-38.92896l-14.82202,1.05194l0.005,-7.02899l-6.58496,-0.96295l-1.729,3.12695l-12.104,-0.62299l-4.59802,17.62201c-6.00897,-1.08301 -11.55798,-2.56201 -20.55902,1.98798c-7.95197,-2.55701 -15.151,3.40204 -26.40698,-36.52899l-4.25897,-2.54498l-45.58203,-0.73401l-20.73798,7.11902c5.19397,14.93896 16.164,23.42401 15.79297,45.51898l-3.56598,3.41998c2.94397,9.97803 5.57001,20.41504 12.12402,25.17902c0.646,2.79401 -0.76904,4.82501 -0.95203,6.92401c-0.672,7.67798 -4.70801,29.44098 -6.47998,25.56201c0,0 -7.30902,1.59698 -7.96399,7.48199c-0.31903,2.867 -3.85706,3.27197 -5.17206,6.80597c-3.67596,9.87903 -7.54999,25.54901 -10.34198,39.79401c-0.32397,1.65002 -2.47699,0.92603 -2.742,2.5c-0.76697,4.53601 0.086,7.75903 -0.19897,12.57202c-0.086,1.43896 -1.91504,-0.97198 -2.26901,0.80896c-0.43503,2.20001 1.33704,8.43604 0.85303,9.94403l-0.00003,0z" stroke-linecap="round" stroke="#000000" fill="#cccccc"/>
    <path id="path75" d="m514.32202,721.64093l8.047,-4.86603c3.37,-7.91498 6.12201,-5.61896 8.79602,-2.05896c-3.42102,3.08801 -6.97302,6.073 -7.30701,11.56097c0.80798,7.60803 -2.72302,6.97198 -5.23102,8.27704c-1.11298,-2.065 -2.69696,-4.03705 -2.146,-6.435c-0.06702,-2.26801 -0.03497,-4.55304 -2.159,-6.47803z" stroke-linecap="round" stroke="#000000" fill="#cccccc"/>
   </g>
   <path d="m359.36111,529.05188l-15.311,2.04901l-7.90799,-61.99402c-1.01102,-4.72699 -5.70401,-6.82098 -9.28702,-9.70999l1.89902,-10.13199l9.92099,-7.81l10.34299,0.422l7.599,-12.242l17.09702,2.74399l0.10599,13.556c4.85001,5.211 3.97,12.20502 0.31201,14.397c0.33398,6.52701 -0.85599,11.939 -5.194,11.793c-2.62698,7.06 -4.86798,15.535 -8.61099,18.50201l-0.96597,38.42499l-0.00003,0z" id="Benin" stroke-linecap="round" stroke="#000000" fill="#cccccc"/>
   <path d="m729.98212,935.02185l-10.62897,5.97101c-10.49103,0.06097 -11.13904,6.23499 -15.06805,9.55499l-2.95599,-8.31097l-39.729,3.48096l-2.26495,61.54004l-16.27203,-0.38196l-1.09601,44.41595c4.44403,5.45508 10.44904,11.396 13.45703,15.37c2.93097,3.87 1.05798,11.42798 -1.78802,18.48706c7.87103,3.33093 15.508,3.49402 23.086,1.52393c1.12701,-2.98999 2.672,-5.14502 4.71503,-6.30493c3.28497,-1.88708 5.992,-4.29309 7.00098,-8.22803l9.89905,-8.25598c6.10205,0.53198 10.79498,2.953 15.55798,6.44397c10.09003,0.14001 16.091,-1.69604 20.27795,-3.82703l1.95703,-9.29993l58.09399,-46.42505c-7.31299,-5.31598 -10.96301,-4.104 -15.13898,-5.08197c-4.20703,-0.98401 -9.396,-8.46008 -8,-21.31305c-4.02802,-0.79303 -6.60699,-3.03699 -8.82001,-5.646c-2.52802,-4.23602 -5.83099,-3.82904 -8.76904,-5.61304c-4.55298,-6.33099 -12.927,-14.461 -13.57098,-19.349c-0.31201,-2.37097 -1.56,-2.24396 -3.336,-4.88495c-2.05096,-3.04504 -4.75098,-10.12604 -6.60699,-13.86603z" id="Botsuana" stroke-linecap="round" stroke="#000000" fill="#cccccc"/>
   <path d="m803.65112,681.39984l2.43097,-2.28302l2.94604,0.146l1.47296,4.125l8.24902,-1.62l0.44098,-5.15601l10.31201,-0.58899c-3.40698,5.92499 1.66998,9.15698 3.83002,12.15204c-6.90698,16.138 -12.78699,21.80798 -18.12701,22.07098c-7.07697,0.03101 -6.15002,2.62299 -6.91498,4.88599c-0.513,-7.17499 -0.14099,-13.867 0.31097,-19.74097c0.55103,-7.18402 -1.83899,-12.474 -4.95099,-13.99103z" id="Burundi" stroke-linecap="round" stroke="#000000" fill="#cccccc"/>
   <path d="m269.71011,474.43286c-3.18301,-0.431 -4.30499,-4.70901 -6.909,-7.177c-5.133,-4.86301 -14.828,-1.24899 -22.55902,3.521c-9.41501,-4.70499 -10.69098,-8.94199 -12.42598,-12.849c1.88399,-5.08099 0.601,-11.758 3.15599,-17.15698c2.28101,-4.82303 6.25,-9.28702 13.211,-13.11502l8.50101,-17.823c7.29599,-2.41199 13.922,-3.32999 19.633,-5.34198c5.49399,-1.936 10.44101,-5.10202 13.452,-9.14603c10.884,-6.72198 24.39502,-15.341 32.741,-13.20798c-0.116,2.73798 -0.12799,5.45499 1.561,7.83298c2.83002,1.922 2.228,5.108 1.64999,8.285l16.82001,22.61401l6.40601,2.13c0.936,-1.06802 5.508,-6.71402 7.76401,5.73398l3.814,0.81601l-7.35901,12.41101l-10.42596,-0.552l-10.035,7.83398l-15.108,-1.79404c-8.685,-0.14996 -9.47998,1.54004 -13.17899,2.55304l-33.53,-0.95804l2.82199,25.39001l-0.00003,0.00003z" id="Burkina_Faso" stroke-linecap="round" stroke="#000000" fill="#cccccc"/>
   <path d="m628.0061,575.85083c-2.92401,8.71899 -6.40997,14.90601 -10.05298,24.39099c-4.77802,12.44 -3.716,31.61603 -6.15204,48.57898c-12.63599,5.72803 -16.63599,14.91101 -23.10297,23.10602l-5.04199,24.12701c-9.12201,8.927 -17.60901,20.39398 -28.599,21.85303c-0.66803,-13.45801 -12.32605,-6.99005 -13.60803,-1.69104c-5.552,3.66803 -7.36401,-0.14398 -10.50098,-1.30597c-4.01202,2.888 -6.91901,6.32697 -6.95905,11.19995c0.565,7.78406 -2.97198,7.36401 -5.52997,8.90002l1.49597,5.93402l20.84204,-7.13104l45.58099,0.81805l4.22998,2.47296c10.36102,38.41602 18.76599,34.62799 26.198,36.50201c11.58002,-4.84601 14.677,-2.151 20.83398,-2.17798l4.47601,-17.47205l12.16803,0.68604l1.55597,-3.18799l6.758,1.05298l0.10303,7.06201l14.66901,-1.07404l1.52496,38.68304l8.36499,17.40997l-6.38196,8.64691l5.815,4.91705l3.10797,-6.22101l19.23804,-0.341l6.97595,-2.33899l6.03503,-0.10803l2.18591,8.59802l11.216,-3.70599c0.60303,2.58307 1.71301,4.47296 3.19299,5.85699c3.64001,3.40198 10.44501,8.086 16.51202,8.17999c4.276,0.065 7.71802,-4.32898 11.46399,-3.54102c5.10803,7.08301 11.16003,9.13599 17.49799,9.66199c4.711,7.30701 7.87604,16.159 21.271,14.78204l5.24603,3.646l-0.37299,-18.698c-9.30304,2.98999 -14.94604,-1.33801 -19.75403,-7.33905c0.94904,-7.37994 3.93402,-14.08099 7.33203,-20.64496c0.297,-7.58899 -0.72601,-14.57904 -2.58905,-22.17902c-0.40796,-1.664 1.763,-7.86499 4.53302,-11.49597l30.16699,-7.38702c-3.12299,-16.90601 -14.10901,-20.33899 -17.26099,-32.30701c-3.85699,-14.64899 -5.742,-32.21301 -3.68799,-49.34698c-0.57098,-8.021 -4.24402,-12.26801 -9.54901,-14.52704l9.00098,-12.896l7.29199,-8.00195l1.13104,-28.02899l10.22601,-15.52502l16.45398,-14.81l-9.92303,-6.45398l0.05005,-17.67902l-20.55499,-17.43201c-1.83502,0.172 -2.68402,1.987 -3.96906,3.073c-4.14099,1.28802 -7.95398,-0.70398 -11.91199,-1.24402c-2.13,4.76801 -10.90796,2.26501 -11.94501,-0.45599c-0.30298,-0.79297 0.38605,-2.39099 -0.81299,-2.83698c-2.58997,-3.49701 -5.258,-5.86005 -7.849,-8.06403l-8.55896,0.41504l-2.78705,3.20697l-3.14899,-2.60999l-1.961,3.06396l-4.09497,-5.354l-18.48004,1.604l0.00702,2.97803l-8.22498,1.513l-1.30005,-3.16101l-20.96198,7.42798c-5.86902,-4.25696 -8.02502,-1.94495 -11.46301,-2.08698l-3.69,8.03101c-17.41101,-0.65802 -24.68396,-0.66498 -27.55298,-4.54498c-5.513,6.07196 -6.854,-1.41205 -10.22998,-2.27704c-1.90704,-8.87598 -6.953,-6.24396 -10.46503,-9.23798c-6.49902,4.362 -10.047,8.72498 -13.08698,13.086c0.03998,6.07001 -0.92603,11.13599 -2.63702,15.45599l0.00006,0.00006z" id="Demokratische_Republik_Kongo" stroke-linecap="round" stroke="#000000" fill="#cccccc"/>
   <path d="m1029.86011,413.43085l-9.84399,7.34601c-1.70502,4.95599 -0.76898,8.94598 -2.16302,11.30399c-5.64697,9.55099 -4.93201,10.29202 -3.17896,12.409c2.362,2.85303 8.58398,0.819 11.80695,-1.08798l5.14209,2.20398l5.72888,-8.668c-3.5249,-2.99399 -7.05188,-1.44498 -10.5769,-1.616c0.96094,-4.31799 5.80896,-5.30499 9.255,-7.49298c2.54199,-7.866 -2.86108,-12.88202 -6.17004,-14.39801z" id="Dschibuti" stroke-linecap="round" stroke="#000000" fill="#cccccc"/>
   <path d="m184.7841,561.11188l6.397,0.604l50.84499,-14.39099l18.24402,2.04498l2.642,-10.80798c-0.55099,-8.646 -7.89101,-17.492 2.03699,-25.83002c0.923,-6.30499 0.41202,-13.16699 7.20401,-17.19l-2.32101,-21.263c-2.79498,0.06 -3.96201,-2.841 -5.427,-5.358c-3.25598,-5.599 -14.17499,-4.93799 -24.26398,1.94901c-4.804,-3.39798 -10.401,-5.737 -12.28099,-13.03299c-6.74101,-2.48599 -11.99001,-1.13501 -16.32901,2.56l0.785,-7.27399c-1.05702,-2.76501 -4.85202,-1.97 -9.31599,-0.30502c-1.125,0.12701 -0.33701,1.89401 0.92499,4.064c-1.636,0.61902 -3.27199,0.70901 -4.90799,1.02106c-1.13901,1.401 -2.78101,2.88599 -4.601,3.267c-4.57201,-8.01202 -7.22301,-6.504 -12.65601,-2.10004c-1.86102,1.51001 -3.07899,5.15903 -3.84001,8.345c-0.85599,3.59003 0.67999,7.05499 4.597,6.55298l-0.364,4.83606c2.79399,1.25 2.19199,1.74698 -0.40901,4.48499c-1.17499,1.23599 3.295,6.89801 2.76402,8.23401l-8.58401,-1.707c-0.22899,1.354 -0.53101,3.30099 -0.655,4.79599l4.039,1.729l-3.155,8.39899c0.41199,0.65802 -3.815,0.233 -4.85301,0.375l0.063,5.26001c4.386,1.181 1.99001,11.45499 -2.127,13.12698l6.037,3.79102c1.32899,-1.04102 5.058,-0.13104 7.479,6.47595c0,0 6.01999,3.78302 5.88898,8.547c-0.10399,3.77905 -2.657,4.38104 -3.34798,7.31l-0.509,11.48602z" id="Elfenbeinkueste" stroke-linecap="round" stroke="#000000" fill="#cccccc"/>
   <path d="m942.44513,381.54987c3.07202,2.10199 6.14398,1.836 9.21503,6.64801l8.15997,-1.634l1.58899,-2.55899l1.34601,-0.358l1.80701,3.366c4.12097,-2.18402 7.83698,-2.27402 10.453,-0.20898c1.59497,1.258 3.94202,-0.49103 5.65302,-1.12698c3.18201,2.578 6.33899,5.40399 9.78796,5.30499c11.20203,9.25699 20.85999,19.28598 29.854,29.64697l9.69598,-6.75897c-1.396,-3.70203 -3.24902,-7.09201 -9.823,-7.25201c-0.32599,-2.979 -1.586,-5.625 -5.76599,-7.228c-0.888,-3.57898 -3.96497,-3.509 -6.38898,-4.52698c-2.04401,-5.68805 -7.026,-8.80405 -11.11499,-12.70206c-4.61005,1.08301 -6.73901,-1.97098 -8.92102,-4.935l-3.50397,-0.68399l-2.50903,1.54099c-2.62201,-2.15598 -3.33698,-5.12997 -4.06799,-8.09698l-3.75598,-1.00201l0.95398,5.20602c-2.27197,1.39099 -3.51703,-2.362 -4.70203,-6.40701l-7.64899,-11.10599c-4.98798,-23.246 -9.33899,-26.09497 -13.79901,-32.44302c-1.22998,2.89203 -1.44299,6.40701 -3.46399,7.98401l-11.255,5.858c-1.81799,3.15799 -4.633,4.09198 -7.625,4.061c-4.216,20.11798 -6.44299,33.10303 -6.242,49.436l8.67603,-0.01196l0.841,-2.80704l4.00702,0.22504l3.302,5.228l5.24597,-12.65701l0,-0.00003z" id="Eritrea" stroke-linecap="round" stroke="#000000" fill="#cccccc"/>
   <path d="m497.67511,699.92584l-30.10699,-31.15198l-7.17902,-18.34003l6.617,-6.35199l1.853,-10.32202l8.46902,1.85303c0.487,-0.50702 1.24799,-0.87604 0.79398,-1.85303l-7.349,-3.76697l2.32001,-10.52502l28.19299,-1.44598l0.12601,-18.13904l34.93597,0l-2.70795,3.81403l-0.31305,11.83301c3.15302,1.203 5.258,-1.39899 7.30103,-5.13898c5.37,-0.83606 15.22803,4.01495 12.54901,13.27795c-4.474,5.03101 -6.51001,9.71704 -4.91302,13.99603c1.17603,3.151 2.59003,6.21198 3.49603,10.883l-2.70801,24.646l-5.61902,4.06299c-2.52502,-4.172 -7.185,-5.67603 -13.70099,-4.85699c-2.00403,-2.51001 -3.97101,-5.716 -7.77002,-0.65198l-14.57199,8.966l1.26199,12.04895l-10.97699,7.16302z" id="Gabun" stroke-linecap="round" stroke="#000000" fill="#cccccc"/>
   <path d="m41.5001,395.95587l18.351,0c3.958,-5.28699 9.788,-3.556 16.43,1.21701l10.595,0.78497l2.336,3.00302l-7.674,2.66901c-5.252,-1.12201 -9.991,-3.14301 -14.347,-5.83502c-3.075,1.823 -6.592,2.91202 -11.01,2.49802l-2.002,3.33701l-15.945,0.66699l3.266,-8.341z" id="Gambia" stroke-linecap="round" stroke="#000000" fill="#cccccc"/>
   <path d="m331.91409,534.41187c-1.60199,2.13403 -1.80099,6.604 -6.23199,4.02002c-22.004,2.672 -30.68701,12.00397 -46.03,18.00598l-19.405,-7.10101l2.642,-10.80896c-0.55099,-8.646 -7.89101,-17.49103 2.03699,-25.82904c0.923,-6.30597 0.41202,-13.16797 7.20401,-17.19l-5.15802,-46.53299l33.509,1.03601c4.45901,-2.36002 9.20502,-2.71201 14.004,-2.69302c-2.63098,5.25702 -1.22897,10.26102 5.14603,14.95401c5.14999,21.00201 4.50998,41.177 6.12399,61.67398l6.159,10.46503z" id="Ghana" stroke-linecap="round" fill="#cccccc" stroke="#000000"/>
   <path d="m63.6491,444.31787c-0.577,1.798 -0.43,2.689 1.907,2.69299c0.944,1.13202 4.272,-6.85901 3.76,1.20502l2.974,0.31799c-1.008,4.479 2.043,9.97998 4.953,10.97299c3.74599,1.27802 5.81699,5.61401 7.876,7.52802l5.083,9.35397c3.5,2.38501 8.323,0.651 15.854,-9.50497c-0.82,-3.38501 3.856,-5.18802 17.836,-4.31201c11.451,8.25101 14.884,17.87701 10.61401,28.823c5.12199,-1.237 7.987,-4.729 16.526,-2.548c4.25699,5.36401 6.892,11.284 3.35199,19.32101c4.71501,1.76099 6.416,6.93802 12.99901,-1.78201c-0.44901,-1.99899 1.177,-2.72 3.24699,-1.185c1.25302,0.92999 3.347,-0.48099 5.323,0.009l3.47801,-8.95999l-4.263,-1.72101l0.81299,-4.70801l8.714,1.772c-0.66699,-3.21201 -5.009,-7.39099 -1.79199,-9.58099c1.44099,-1.483 0.77499,-2.64401 -0.688,-3.681l0.181,-4.10599c-8.45,-1.01102 -3.627,-10.36002 -0.711,-15.099l-5.179,-4.707l-0.59499,-10.358l-4.27,3.14798l-1.59799,-2.38599l5.70299,-5.21701l-7.7,-5.85098c1.272,-4.09702 -0.444,-9.01001 -1.84,-14.121l-5.42201,-1.17902c0.084,2.33401 -0.72501,4.10101 -3.10599,4.866c-2.033,-0.61099 -3.27902,0.689 -3.74002,3.896l-9.60898,-3.97699l-7.62901,5.53101c0.96701,-2.479 -1.51001,-3.95001 -3.06801,-5.798l-4.207,2.82599c-3.28699,1.10602 -3.699,-0.66098 -3.66,-2.88098c0.676,-0.72101 1.521,-1.27301 1.779,-2.41101c-11.867,-1.84299 -24.297,-1.103 -35.146,-7.63397l-3.402,-0.01898l-1.478,18.409l-9.264,0.246c-9.05299,3.29398 -13.50999,11.72498 -14.605,12.80899l0,-0.00003z" id="Guinea" stroke-linecap="round" stroke="#000000" fill="#cccccc"/>
   <path d="m37.4161,417.46185l1.124,3.08701c2.326,1.59299 6.705,-1.55502 6.442,6.00998c2.116,1.10501 4.733,-1.12698 6.251,3.96201c2.596,1.31201 9.171,-10.90399 6.79,7.327l5.837,6.39502c3.461,-5.396 8.664,-10.80502 14.05,-12.73602l9.53,-0.23196l1.601,-18.35898l-24.592,-0.08401c-4.998,2.42999 -10.134,3.76102 -15.57899,2.61002c-3.47,1.241 -7.086,1.89999 -11.454,2.01999l-0.00001,-0.00003z" id="Guinea-Bissau" stroke-linecap="round" stroke="#000000" fill="#cccccc"/>
   <path d="m582.95313,608.78888c-4.47699,-1.96997 -9.83197,-6.43298 -12.992,-4.672l-11.28796,-4.02698l-22.58905,-0.20703l-35.465,0l-24.15399,0.26501l2.45102,-18.526l-6.35202,-8.20502l2.38199,-2.91101l-1.58798,-2.38196l-4.23401,1.323c-5.23099,-0.64905 -7.104,-4.35199 -8.33099,-8.64203c-2.82501,-1.06201 -6.77701,-0.67999 -6.755,-5.38599c5.94101,-10.284 7.23199,-24.32501 18.82901,-30.04199l0.40399,-4.53302l16.55801,-0.784c6.18399,3.97101 4.20898,8.53302 14.71204,7.20099c7.271,-13.125 12.54495,-37.237 22.01596,-38.27197c5.73401,-14.116 7.43597,-34.14603 17.203,-42.34705c4.81299,-1.71997 8.91901,-3.76196 10.70001,-6.85901c1.039,-1.80899 1.28699,-7.65695 0.42096,-10.33096c-0.62201,-1.923 -1.81897,-0.42502 -3.711,-2.92398l-2.84198,-10.84006l2.30103,-1.86395l8.74597,7.40997c1.242,6.065 4.26501,11.68698 3.67798,18.20898c-0.63397,9.487 -4.54999,10.84399 4.91003,21.668c1.61102,2.685 1.97797,5.52402 1.63098,8.45401l-17.63,-1.75c-1.966,4.81201 -6.32397,15.73999 11.047,19.59698l8.19299,24.61404l-15.271,25.396l2.12903,18.53802c6.44397,11.87994 13.90997,24.25293 24.33801,33.86499l0.55298,18.96399z" id="Kamerun" stroke-linecap="round" stroke="#000000" fill="#cccccc"/>
   <path d="m1015.57611,664.11084c-2.19702,3.43201 -4.604,6.60303 -9.435,6.74402c-1.79901,4.76495 -4.12103,9.11499 -10.10303,10.57697c-6.58698,11.89801 -11.59595,25.57001 -19.82397,35.62201l-23.01202,-15.41998l-3.61499,-13.409l-70.10699,-44.02399l23.07404,-35.27802l0.49194,-19.76599l-7.92596,-6.53302c-0.98401,-7.62903 -2.76898,-14.52301 -9.04498,-17.29999l8.15997,-7.133l22.81201,-1.03101l14.19202,1.21497c4.86499,2.51404 7.44696,2.60205 20.31897,13.33301l25.84198,3.88403c4.12402,-1.42004 7.95502,-3.52802 10.82605,-9.271c6.23895,-0.901 12.85699,-6.30005 20.95496,1.39996c2.651,0.94104 6.89502,0.54199 11.099,-0.06799c-4.82001,7.70398 -9.888,13.91699 -14.92096,20.33801l0.427,64.11401l9.78998,12.00598z" id="Kenia" stroke-linecap="round" stroke="#000000" fill="#cccccc"/>
   <path d="m510.4281,78.56786c0,0 2.49799,9.674 -4.97202,14.979c-3.758,2.669 -16.04398,11.679 -16.04398,11.679c1.04199,5.499 2.328,19.254 -9.604,21.128c-8.20102,1.287 -3.90302,7.917 1.58099,16.909l0.349,46.82401c0,0 -7.297,1.425 -6.78,3.354c1.16,4.32899 1.24701,7.437 6.71301,12.30299c3.50998,3.123 3.57498,8.763 3.272,12.224c-0.34906,3.99399 4.14395,5.71201 5.19696,5.68701c8.20804,-0.19902 14.68503,-4.10202 22.46002,17.33699l38.56598,1.18799c4.49402,0.951 9.25305,7.83502 9.25305,7.83502l22.08698,-6.27502l130.04498,64.3l-0.23401,-10.444c14.37701,1.17102 16.02802,-0.48398 16.02802,-0.48398l-8.88696,-151.927c-5.22302,-7.16702 -10.37103,-14.19301 -4.09204,-22.14201c0,0 0.04199,-8.431 -1.52997,-13.21301c-1.63605,-4.978 2.85199,-8.362 2.85199,-8.362c-0.07001,-6.44099 -12.435,-5.952 -18.94,-6.286c-8.53699,-0.438 -14.27301,-1.608 -12.78699,-8.003c0,0 -22.31604,-8.013 -30.953,-2.73c-4.58899,2.807 -14.26501,7.291 -16.026,13.041c-1.185,3.86501 -0.12402,6.486 2.17999,10.412c4.034,6.87299 -9.58704,30.47099 -25.15698,11.586c0,0 -20.45203,-5.63 -32.00403,-8.155c-11.30597,-2.471 -19.10699,-12.385 -14.41498,-18.386c0.45898,-0.586 -30.685,-9.596 -30.685,-9.596c-14.38403,2.224 -24.91504,-1.98199 -27.47302,-4.783l0,-0.00002l0,0.00002z" id="Libyen" stroke-linecap="round" stroke="#000000" fill="#cccccc"/>
   <path d="m184.6991,561.06488l-14.325,-5.03998l-50.466,-41.34204l15.974,-13.36597l-0.28,-4.77902l7.828,-7.56299c2.32899,-1.57401 5.16,-0.47601 7.84,-0.18301c6.72301,9.793 4.92102,14.39801 3.086,19.367c3.81401,0.97 6.69502,7.31799 13.007,-1.74701c-0.17599,-2.521 1.364,-2.54398 3.964,-1.02698l0,4.81c2.05499,0.86301 3.55899,4.95001 1.56599,8.68799c-1.05801,1.98199 -1.78299,4.01599 -4.05299,4.42303l6.593,4.03998c1.87198,-0.31799 3.48799,-1.70898 7.429,6.61102c0.847,1.16595 10.696,5.297 2.52298,15.10095l-0.68599,12.00702z" id="Liberia" stroke-linecap="round" stroke="#000000" fill="#cccccc"/>
   <path d="m1069.99304,1078.48096l47.99194,-102.13904c3.67004,-11.52502 5.84607,-23.04999 11.26306,-34.57501c3.67395,-4.85797 8.33398,-9.36499 5.401,-16.58301l1.04297,-9.90698c0.53796,-2.99402 2.18799,-2.93201 4.69202,-0.521l1.46997,5.98297c1.78406,-0.56598 3.53406,-1.17395 3.396,-4.14294l-4.86499,-52.93903l-9.17493,-9.94403l-5.30408,4.39301l-1.38,13.58905l-3.06494,2.69598c-1.60999,-0.48999 -3.96606,-2.91803 -3.271,2.586l-4.55103,4.99298c-5.17603,-9.60101 -5.94104,-1.08301 -4.54004,3.065c-0.13696,1.81201 0.37207,4.914 -2.08496,2.086l-3.70801,5.98303l5.271,3.92297l-3.12793,0l-6.77808,4.909l1.04297,-5.95099l-6.77893,6.77802l1.56396,8.34296l-4.57092,0.18402l0.896,-3.73901c-4.22302,-2.776 -7.65808,3.104 -11.44507,5.11902l4.172,6.77802l-5.21497,0.521l-2.08606,-6.25702l-8.40491,1.38c0.26294,2.95599 -3.13501,3.82001 -6.19409,4.87701l-0.521,-4.17102l-4.69202,4.69202l-8.18994,0.39996l-1.59595,7.05304l-11.07007,16.01099c8.45703,7.43402 5.03003,24.20398 7.30005,36.5c-3.11401,9.91901 -9.16003,17.49103 -14.6001,25.55005c-6.32593,4.177 -9.18195,8.354 -10.14392,12.53101c-0.92303,4.008 -2.86603,11.88702 -1.69202,15.89496c1.36902,4.677 3.95599,3.08606 4.07202,7.76306l1.539,7.67102c-7.7381,29.79395 11.51898,29.3479 15.66803,36.62292c1.88696,-0.85803 4.28491,0.60205 6.12793,-0.39294c4.09302,-2.20801 9.32605,-7.66199 14.79504,-5.84998c4.57397,1.51697 8.00598,-0.21802 11.34497,-1.76306z" id="Madagaskar" stroke-linecap="round" stroke="#000000" fill="#cccccc"/>
   <path d="m248.8661,206.17085l-25.483,0.686l1.20399,147.05098l6.72101,2.37402l-4.711,14.37698l-75.104,-4.24899l-8.644,6.05899l-4.72299,-1.74399l-3.27101,-9.70901l-4.29398,-1.147c-8.45701,18.48901 -9.755,16.33801 -12.896,19.50101c0.513,1.89102 -0.72,3.69501 -0.112,5.427c1.903,5.41901 3.097,10.91602 0.23199,13.26001c3.912,3.483 8.96,6.25598 10.411,11.276c0.27901,6.40298 -0.06999,11.34198 -1.793,13.07599c-1.70699,1.70999 0.32,5.69699 3.869,2.711l3.45099,-2.09698c1.134,1.80701 3.636,2.79401 3.27101,5.50198l7.605,-5.19998l9.287,3.858c0.94301,-1.423 -0.24002,-3.556 3.37198,-4.08902c1.897,0.052 3.231,-1.30399 3.791,-4.59598l5.09802,1.237c1.37198,4.802 3.04401,9.64697 2.16298,14.12698l7.52301,5.681l-5.746,5.26001l1.591,2.40201l4.19099,-2.79401l0.62199,10.06299l5.29401,4.86401c2.17101,-2.15402 5.636,-4.87 8.257,-3.509c2.472,1.284 3.623,6.31 5.95398,4.73999c2.438,-1.64099 2.89601,-3.17599 6.673,-3.17099c2.84599,0.004 -2.43901,-4.91501 1.104,-4.81302c1.646,0.048 4.21799,-1.89099 7.06299,-1.14297c2.72801,0.71698 -0.664,10.87598 1.33501,8.69498c4.95599,-5.40698 14.83099,-3.31299 15.785,-2.104c2.765,-9.89899 -2.63901,-19.02899 16.32799,-30.45798l8.371,-17.63202c11.159,-4.68198 23.13702,-2.55099 33.39703,-14.72699c12.89899,-8.617 25.78998,-15.09702 32.75595,-13.16501l13.022,0.01401l7.31799,-6.245l35.02902,0.43799c0.888,-1.72 1.37598,-2.98398 6.215,-5.36301c0.03799,-4.22897 3.83099,-4.46198 6.46698,-5.79398l1.375,-51.91l-13.14999,1.896c-5.19296,-3.37601 -0.82495,-4.452 -0.77701,-11.961c-2.961,-6.66699 -6.72598,-7.67001 -10.42398,-7.013c-3.24802,0.578 -4.71002,-4.02802 -6.414,-3.681c-2.935,0.59799 -6.14902,-2.21899 -8.09601,-6.36301c-0.66101,-1.409 -2.47897,-2.05099 -3.70801,-2.896c-2.73199,-1.87601 -5.224,-3.31799 -4.517,-6.24399c0.004,0.00098 -62.547,-47.77504 -92.282,-70.75804l0,0.00002l0.00003,0.00002z" id="Mali" stroke-linecap="round" stroke="#000000" fill="#cccccc"/>
   <path d="m882.7691,801.72186l9.95898,32.83002l-2.93896,29.14697c5.90997,5.32404 11.78998,9.64502 20.08398,23.48303c1.04102,1.737 2.13098,6.07898 1.76398,9.56097l-3.60901,15.409l-9.01599,3.92603l0.69904,13.47998l-4.78705,0.073c2.466,-6.32898 0.10504,-5.14697 -0.95795,-5.53101c-6.53601,-4.12799 -8.98505,-10.20398 -10.18805,-15.65302c5.34705,-8.22998 5.03003,-14.84399 4.42004,-21.20599l-8.84705,-1.63599c-6.82996,1.66901 -8.15796,-0.83698 -8.81696,-3.11499c-3.70599,-8.68103 -5.409,-5.336 -6.76904,-5.92303l-5.276,-7.26196l9.25403,-17.15601l7.21899,-0.81104l-4.91302,-6.39996l4.302,-22.31201l4.09601,-3.021l-11.82996,-23.37903c3.43896,3.01703 7.24194,4.04401 16.15198,5.49603z" id="Malawi" stroke-linecap="round" stroke="#000000" fill="#cccccc"/>
   <path d="m198.93311,157.45087l2.576,-19.744l15.47501,-7.987l3.49399,0.99902l5.49101,-4.493l9.125,0.66l0.49899,-4.353c19.07899,0.932 22.94699,-4.17001 26.31699,-9.286l15.97403,-6.489l5.98999,0l-2.995,-3.993l0.99799,-3.693l-0.49899,-4.793c6.24701,-0.81699 13.952,0.18501 13.99799,-6.35l25.93701,0.359l3.49399,-7.986c-4.95398,-1.818 -5.84,-8.981 -5.177,-16.593c0.49301,-5.651 0.04602,-18.509 0.04602,-18.509c-1.71002,-2.063 -3.84,-4.006 -4.332,-6.97c-4.159,-0.767 -9.26498,-0.859 -11.004,-3.354c-6.03796,-1.037 -12.02002,-1.588 -17.41901,-1.045c-9.88501,0.994 -13.953,-2.567 -18.022,-11.934c-9.51999,-0.621 -19.61298,19.836 -26.95598,29.95c-17.757,4.938 -30.60701,12.943 -39.436,23.462c1.17999,4.27599 -0.89302,5.923 -5.20201,8.74599c-2.78499,1.825 -12.58299,17.465 -9.27301,26.196c0.041,6.82201 -5.276,18.19199 -20.55699,25.75799c0,0 -7.125,6.65901 -18.39398,10.33601c-4.75401,1.55101 -15.776,2.787 -19.11101,5.862l68.96298,5.244l0,-0.00002z" id="Marokko" stroke-linecap="round" stroke="#000000" fill="#cccccc"/>
   <path d="m116.5021,262.64087c2.054,-14.69701 -7.082,-35.35201 21.465,-35.94099l5.99001,-44.427l50.91599,4.492l2.75601,-19.96501l51.315,39.40401l-25.56001,0.621l1.29602,147.157l6.46898,2.306l-4.36,14.29401l-75.33299,-4.14902l-8.58701,6.07202l-4.63499,-1.52103l-3.27499,-9.978l-4.55501,-1.12698c0,0 -8.313,20.509 -13.605,18.435c0,0 -2.354,-2.55402 -5.01601,-5.306c-2.34599,-2.423 -4.90199,-4.82401 -6.715,-8.24301c-2.521,-4.755 -4.266,-12.38898 -7.73901,-11.84299c-7.393,1.16098 -13.02599,-8.64301 -13.02599,-8.64301c0,0 -8.61301,-2.39001 -14.787,-0.67499c-7.98,2.216 -16.994,-0.08401 -18.603,0.95999l7.325,-20.35001l0.747,-23.72101l-4.461,-7.12601c2.385,-4.21698 9.672,-8.10498 4.909,-20.72998c-0.545,-1.444 -3.139,-0.66605 -3.139,-0.66605l-3.076,-9.28101l3.78,-3.78998l59.504,3.741l0.00001,0.00003z" id="Mauretanien" stroke-linecap="round" stroke="#000000" fill="#cccccc"/>
   <path d="m813.26813,893.00385l3.53198,9.23999l-0.271,4.62l12.23004,0.91901l28.65198,11.15002c2.93402,16.013 1.05499,29.401 -3.59698,41.27698c-0.12604,2.32501 -0.901,4.547 -0.62,6.677c0.52899,3.99402 2.49799,9.5 0.263,14.08301c-5.755,11.79901 -11.13104,23.61005 -12.51801,24.37805c-4.75201,2.63 -10.65802,10.31897 -10.82202,16.479l2.85999,70.74097l10.83301,0.698l2.88599,-10.01794l-4.349,1.63098c0.66504,-3.96301 -0.24896,-7.92603 3.914,-11.88904l34.763,-13.73999c4.30499,-3.16003 6.97803,-7.94995 9.97205,-12.42004l-4.05902,-1.40198l7.198,-27.16797l-3.698,-1.25598l-2.99103,-22.86505c-9.84796,-6.039 -4.14996,-15.42603 -0.177,-17.62103l21.013,-17.85596l1.73303,3.55896l7.79401,-8.60999l-1.71899,-2.65399l5.06598,-0.92798l1.505,-4.36005l25.74902,-12.67096l6.43097,0.06598c4.87598,-3.69299 8.79199,-7.65997 15.901,-10.716l-0.45502,-3.81598l8.57904,-6.638c2.05896,-2.11304 3.82697,-5.242 6.521,-5.13202l0.37598,-4.25403l-1.63202,-1.80896l4.69403,-7.039l1.18799,-4.698l-0.74896,-3.07098l-2.875,-4.37103l0.995,-17.21399c-2.19305,-2.13098 -0.98206,-3.58099 0.19098,-5.03802l-0.56702,-19.00397l6.90204,-11.62799c0.17798,-3.18604 0.43597,-6.37103 -0.72705,-9.55701c-10.59198,6.30298 -28.31396,17.276 -37.271,11.64697c-3.92395,0.479 -8.328,0.47198 -12.125,5.409c-3.224,-0.30096 -6.13599,-0.91296 -9.992,-0.58301l-12.677,2.29602c-2.30096,-2.75 -4.612,-5.479 -9.948,-2.49701l-18.49396,-0.60297l-2.88904,28.91199c9.12201,7.341 17.15204,16.784 21.16205,26.45996c2.44098,5.89203 -1.979,14.38501 -2.83301,21.90704l-9.17603,3.96997l0.479,12.88104l-4.52002,0.685c1.10004,-2.69 2.31604,-5.43604 -1.62799,-5.77203c-4.992,-4.23199 -8.81702,-9.00299 -9.34497,-15.29602c3.82196,-6.21997 5.36096,-13.25299 4.349,-21.19897l-8.89703,-1.63c-3.46399,0.84003 -7.47998,0.76898 -8.38501,-1.98999c-2.401,-7.33301 -4.72797,-7.72003 -7.44897,-6.979l-50.276,16.30701z" id="Mosambik" stroke-linecap="round" stroke="#000000" fill="#cccccc"/>
   <path d="m509.18909,927.45087c0.711,9.31903 1.58099,18.58203 10.12598,25.159l35.29602,62.85504l0.89801,28.84503l6.29797,13.34998c0.354,5.198 -1.56299,10.396 1.63104,15.59497l4.38501,24.552l19.16797,21.34497c11.90802,-12.78894 16.24103,-2.45996 19.22498,5.73206c7.28802,-0.68994 14.57605,-1.36206 21.86401,-0.09705c3.414,-3.08496 6.90399,-6.14001 12.28003,-8.43896l2.80396,-109.55597l16.20905,0.52496l2.328,-61.69202l39.57599,-3.492l3.04199,8.27301c2.849,-3.12799 6.74597,-8.88702 12.57001,-9.15204c5.26099,-0.23895 7.83301,-3.64899 13.013,-6.40497l-3.79303,-5.51898l-25.48199,4.242l-28.45001,6.62097l-46.047,-6.146l-7.70996,-6.48303l-72.52002,0.83905c-3.46301,-4.58704 -16.58398,-15.03101 -26.06799,-2.716c-3.20801,-3.83099 -7.07898,0.96698 -10.64301,1.76398z" id="Namibia" stroke-linecap="round" stroke="#000000" fill="#cccccc"/>
   <path d="m388.2081,313.34085l-1.43399,51.94901c-2.297,1.33398 -5.49002,-0.026 -6.36401,5.577c-2.55399,1.48099 -5.70099,2.51901 -6.267,5.491l-35.108,-0.33899l-7.134,5.99399l-13.28198,0.07199c-0.384,2.86005 -0.315,6.43802 1.94498,8.20801c2.00601,1.57004 1.711,4.87701 1.20206,7.79001l16.797,22.41l6.09399,2.27698c3.37796,-2.96399 6.45596,-3.83395 7.987,6.12903l20.80301,2.95203c1.45099,-3.32501 1.10199,-7.93802 4.87097,-9.60602c5.65903,-3.19998 4.73401,-8.79498 6.75299,-13.319c4.62003,-2.203 1.66602,-5.336 26.07898,-5.108c6.31305,3.96899 12.40604,5.297 19.05502,13.27701l4.89603,0.20001c0.13995,-1.67401 5.07797,-5.11401 8.09695,-5.68802c3.271,-1.77899 9.086,1.31702 16.836,8.12302l13.80701,1.23599l13.259,-9.509l23.17999,-0.595c3.49603,1.366 6.086,4.492 11.245,3.19901c3.70599,-4.172 10.79504,-8.15399 18.93799,-11.58801c-1.26398,-3.69 -2.68597,-7.293 -1.50696,-12.03c1.98596,-1.66998 4.42798,-1.93399 4.66797,-8.146l28.005,-31.077l5.19403,-49.556l3.95496,-9.965c-8.00598,-3.27805 -13.48895,-6.38501 -15.24597,-17.43701c-0.95703,-6.01999 0.40802,-13.78998 -0.18701,-25.03l-4.98602,0.85501c-2.737,-3.222 -5.38794,-6.675 -8.88898,-7.86l-39.26599,-1.43001l-99.48297,65.58701l-24.513,6.957l-0.00003,-0.00003z" id="Niger" stroke-linecap="round" stroke="#000000" fill="#cccccc"/>
   <path d="m454.00409,555.60583l-3.36401,-0.15698l-1.10397,5.88898c-5.767,0.14001 -11.53302,-0.46997 -17.30002,-2.57599c-13.77399,8.57501 -24.685,7.17297 -30.314,-12.61798c-4.28,-11.04706 -11.207,-14.63306 -18.543,-17.06702l-23.96799,0.138l1.04797,-38.25403c3.80301,-4.84 6.17001,-11.59598 8.306,-18.659c6.40903,-1.577 5.04102,-7.21198 5.33401,-11.97998c6.40601,-4.24301 2.207,-10.89999 -0.431,-15.36002l0.414,-12.444c0.54498,-3.52798 -0.25699,-7.345 4.80399,-10.58499c1.97,-2.422 3.93903,-1.242 5.91,-13.086c3.51199,-2.69901 7.22101,-5.35501 26.13501,-4.754c6.61099,3.457 15.02795,6.263 19.61697,13.38599l4.25702,-0.20398c2.74701,-1.935 3.59601,-5.34702 8.59,-5.53302c2.84802,-0.061 3.01602,-2.79999 16.52902,7.806l14.08798,1.31601l13.08398,-9.431l23.453,-0.45801c3.422,1.42599 6.22601,4.552 10.66101,3.19c5.862,-5.83701 12.974,-8.85498 19.66003,-11.672c2.672,4.284 6.39197,8.47101 9.72699,11.14301l-2.22601,1.77798l2.81897,11.34601c1.31104,0.991 3.69501,1.33801 3.75604,3.08002c2.51801,11.12799 -3.71899,14.57098 -11.09601,17.02798c-9.39398,7.31 -11.75403,27.367 -17.151,41.92001c-10.49402,3.09998 -13.98901,22.50598 -22.01404,38.46301c-7.741,1.51099 -9.70001,-2.258 -14.55801,-7.5l-16.86697,1.09296l-0.44101,4.51105c-10.771,5.625 -13.25,18.37897 -18.815,30.25098l0.00003,0z" id="Nigeria" stroke-linecap="round" stroke="#000000" fill="#cccccc"/>
   <path d="m514.3811,721.62189l-16.80701,-21.69598l11.24802,-7.146l-1.323,-12.17499l13.76297,-8.33704c2.35004,-1.84698 4.112,-6.328 8.33704,0.26501c7.31097,-0.86603 11.57001,1.01196 13.896,4.63202l5.82196,-3.97003l2.38202,-24.21698c-0.11102,-8.34302 -9.448,-13.79199 1.72101,-25.67303c1.87799,-7.81 -5.10803,-13.15698 -12.836,-12.83698c-1.89099,2.41797 -2.60199,6.31 -7.25903,5.26898l0.24506,-11.62l2.77795,-4.23401l22.49701,0.26501l10.86798,3.86401c4.05505,-2.07202 9.48401,4.08301 13.25806,4.71497l-0.57104,-18.63696c8.52502,-10.86102 14.80701,-14.104 21.83502,-15.74701l10.71899,4.896l13.23297,-3.70502c-3.24896,8.69403 -6.79199,15.83099 -10.08295,24.362c-5.64203,14.62 -3.75702,32.44202 -6.32605,48.81702c-12.21899,5.35699 -16.64899,14.76398 -23.02496,23.15802l-5.271,24.25598c-11.50299,12.32397 -21.65399,22.20203 -28.21002,21.664c-0.04401,-6.92798 -7.56299,-13.07202 -13.70099,-1.68201c-4.28003,2.83398 -7.35999,1.36298 -10.64801,-1.75897c-4.75702,-6.284 -6.32202,-0.95905 -8.46899,2.24896l-8.073,5.02301z" id="Republik_Kongo" stroke-linecap="round" stroke="#000000" fill="#cccccc"/>
   <path d="m827.21912,653.85388l-7.36499,5.89197l-2.50403,0l-1.47296,-2.06195c-6.53204,6.51801 -11.41302,13.85999 -16.42499,21.138c1.80695,0.43097 3.25098,1.31299 4.271,2.72498l2.43097,-2.28302l2.79901,0.22205l1.39899,3.75598l8.47003,-1.69403l0.36798,-5.08197l10.53302,-0.58899c1.54498,-2.11102 2.91895,-4.22302 5.229,-6.33398l-7.73303,-15.68903z" id="Ruanda" stroke-linecap="round" stroke="#000000" fill="#cccccc"/>
   <path d="m830.04309,774.90485l-30.44202,7.50702c-1.979,3.61896 -3.38196,5.70801 -4.14996,9.80896c-0.198,1.06305 0.71796,3.24902 1.04095,6.23804c0.64001,5.91699 2.64404,16.29199 0.83002,19.09302c-4.25098,6.56195 -7.125,18.67896 -6.883,19.02496c2.427,3.47699 7.35303,7.026 10.25702,7.79303c4.00397,1.05896 8.50098,0.55896 9.47498,-0.94501l0.479,19.216c-1.56097,-1.28802 -3.79999,-2.19 -4.90497,-3.59204c-6.38904,-0.54401 -12.151,2.875 -21.54602,-14.896c-6.17401,-0.52997 -12.276,-2.33099 -17.55103,-9.67401c-2.55798,-0.66998 -6.82599,2.83002 -10.67499,3.69202c-11.00897,-1.05402 -14.17297,-6.27301 -16.98199,-7.87897c-1.909,-1.76801 -3.11603,-3.82703 -3.48798,-6.23505l-11.32904,3.75806l-2.034,-8.76404l-4.68701,0.15302l-4.02899,32.823l3.70703,3.73798l-34.55798,-0.89398l-1.66504,61.51202l19.24902,17.013l26.08698,-4.09399l3.81702,5.73297l1.65302,3.862l20.41498,0.216l2.78601,2.448l3.81299,-1.00403c11.00702,-14.39398 21.03998,-18.073 31.17297,-22.85999l0.41602,-9.56c7.995,-4.95001 16.61804,-7.73199 26.60101,-5.81897l-3.73999,-9.466l50.70801,-15.888l-5.40302,-7.89703l9.14398,-17.04095l7.06604,-0.83203l-4.57202,-6.23401l4.15601,-22.44397l4.15601,-2.909l-8.31299,-16.21002l-3.78601,-7.50702l-19.44202,-6.52301c-6.612,-9.39795 -8.16101,-7.62994 -10.22101,-7.08099l-6.62799,-7.38098z" id="Sambia" stroke-linecap="round" stroke="#000000" fill="#cccccc"/>
   <path d="m51.1511,344.04486c-2.99,5.13998 -5.022,7.82199 -5.108,11.995c-0.198,9.53702 -9.717,12.57602 -14.48,19.51001c4.433,6.461 9.258,12.80798 10.009,20.35199l18.351,0c3.959,-5.28598 9.789,-3.556 16.43,1.21701l10.59599,0.785l2.33501,3.00299l-7.674,2.66901c-5.252,-1.12201 -9.991,-3.14301 -14.347,-5.83401c-3.075,1.823 -6.592,2.91202 -11.01,2.49802l-2.002,3.336l-16.015,0.66699c-0.944,4.33801 -1.815,8.67499 -1.001,13.013c3.854,-0.35599 7.607,0.20901 11.667,-1.992c5.472,1.401 10.667,0.17599 15.69,-2.67996l27.67599,0.33096c10.401,5.94904 23.374,6.56201 35.384,7.34399c0.56599,-6.26898 4.06899,-12.50299 -9.586,-22.021c2.09599,-2.698 1.312,-8.905 -0.522,-13.38901c-1.03799,-2.53598 0.952,-3.33398 0.009,-6.04099c-1.297,-0.72299 -2.86,-2.77301 -5.04601,-4.83499c-2.444,-2.30801 -7.40601,-8.93701 -7.40601,-8.93701c-2.904,-8.71301 -6.64999,-12.27701 -6.64999,-12.27701c-8.915,1.45901 -14.42101,-8.57599 -14.42101,-8.57599c-7.61,-2.056 -11.59,-0.54199 -14.902,-0.36801c-8.648,0.453 -10.408,1.52002 -17.977,0.23001l0.00002,0z" id="Senegal" stroke-linecap="round" stroke="#000000" fill="#cccccc"/>
   <path d="m119.8841,514.76288l-13.128,-6.66699c-1.46001,-4.06302 -5.507,-6.27899 -9.636,-8.43701c0.389,-5.73999 -3.419,-7.04599 -5.964,-9.121l-0.866,-13.702c5.757,2.23999 10.853,-3.56799 15.868,-10.043c-1.24899,-5.04498 10.18201,-4.52798 17.814,-4.38101c7.603,6.61902 15.563,12.966 10.66,29.05902c3.252,-1.22601 6.321,-2.63501 9.929,-3.505l-9.05298,8.47l0.29198,4.81799l-15.91599,13.509l-0.00001,0z" id="Sierra_Leone" stroke-linecap="round" stroke="#000000" fill="#cccccc"/>
   <path d="m731.63013,938.93988l5.06201,10.25299c1.66199,1.93201 3.82898,3.73303 3.67902,6.87299c3.94995,6.75403 8.87695,11.55499 13.383,17.19702c3.45599,1.08301 6.513,2.646 8.61298,5.42297c2.12103,2.56 4.534,5.14001 8.79199,5.79803c-1.797,10.42297 2.88,19.39905 7.776,21.26801c5.79999,0.26404 11.28601,1.34406 15.44403,5.30902c11.79797,1.40698 13.177,3.04602 15.96899,4.65302c9.664,-3.23102 14.16901,2.16296 19.664,5.88202c1.315,-7.87805 5.95599,-12.28802 11.20996,-16.44202c4.14801,-6.04205 7.953,-15.50208 11.91602,-23.39606c2.93799,-4.89398 0.57001,-10.06598 -0.14001,-15.15302l0.77899,-6.48798c7.14001,-17.90399 4.94904,-28.59198 3.79004,-41.18903l-28.98804,-11.18799l-12.17999,-0.86798l0.40302,-4.12701c-10.32599,-3.34698 -18.729,1.16302 -26.42999,5.41101l-0.349,9.508c-23.71301,10.578 -24.974,16.328 -31.50201,22.97803l-3.53699,1.09698l-2.883,-2.55103l-20.47101,-0.24799z" id="Simbabwe" stroke-linecap="round" stroke="#000000" fill="#cccccc"/>
   <path d="m1037.43713,436.58786l-5.87402,9.15601c-5.70703,8.23099 9.94702,20.81299 22.82397,32.83099l49.755,15.96201l16.03906,-0.668l-48.32397,55.29202l-19.5271,-0.38702c-6.20996,3.48602 -12.27893,7.05597 -16.72791,11.599c-5.08008,3.16302 -10.76208,5.12402 -16.16205,7.64801c-3.34802,7.31396 -8.92596,13.29199 -13.95502,19.59796l0.15503,64.16504l9.78601,12.31097l22.51404,-25.21399l37.73193,-35.61499l4.33997,-0.521l15.81201,-14.95703l0.646,-2.99298c8.67798,-6.59198 19.48401,-17.65302 22.17603,-23.11603c4.771,-9.66095 10.91699,-17.84698 17.771,-25.68799l14.85706,-42.90598c2.89001,-2.78601 5.05591,-6.53702 6.8739,-10.754c0.7511,-4.5 3.44202,-6.091 5.50903,-8.61801l1.69202,-21.48599c4.81299,0.67599 2.49207,-8.84302 2.76404,-14.65601c-1.85901,-1.65799 -3.93201,-4.392 -0.04407,-6.58704l-0.03491,-5.35498c-3.495,0.29102 -7.01404,-3.70203 -10.4491,-1.00598c-4.3009,4.047 -10.03796,6.94199 -16.58093,7.48196c-7.27502,0.60199 -13.20508,4.811 -16.25403,3.77805c-4.92993,4.08899 -11.21094,5.47595 -19.36401,3.11694c-5.44202,4.84201 -9.01001,11.13101 -26.48694,6.68802l-11.14001,7.96503c-17.18896,4.65997 -21.66797,-9.254 -30.32202,-17.065z" id="Somalia" stroke-linecap="round" stroke="#000000" fill="#cccccc"/>
   <path id="path3246" d="m887.21875,477.4375l-0.03125,0l-7.71875,2.84375l0,-11.78125l-4.46875,-8.5l-7.46875,-2.84375l-6.03125,-33.53125l-6.5,-2.625l0,5.6875l-11.4375,0l5.9375,4.4375l1,13.875l-17.15625,22l-16.15625,-10.625l-10.6875,3.9375l0,5.6875l-9.34375,3l-0.15625,-5.84375l-20.4375,-0.65625l0,7.375l-19.5625,0l-6.5,0.625l-4.5,-8.625l-5.5,0l-8,0l-14.53125,28.4375l-0.03125,0.28125c0.16425,0.07202 0.37408,0.07394 0.53125,0.15625c2.09601,2.935 2.97028,6.51926 12.65625,5.40625l5.59375,5.125c-1.20898,8.48999 11.36572,13.16925 18.71875,19.28125l6.84375,13.5c5.88898,2.86102 12.96777,4.08875 13.84375,13.96875c3.92102,2.22803 5.46277,5.492 8.34375,8.375c1.32397,1.32501 0.09125,2.59302 1.40625,3.625c3.729,2.92798 10.45203,3.64447 11.375,-0.5625c0,0 6.22174,2.35553 10.71875,1.8125c2.79199,-0.33698 2.53552,-2.97247 5.3125,-3.5625l20,17.5l3.5625,-2.59375c13.72803,3.185 27.46051,1.35797 41.1875,-0.625l16.375,-14.03125l22.65625,-0.8125l0.21875,-11.78125l-11.65625,-4.03125l-8.0625,-17.84375l-11.6875,-9.875c2.04303,-3.146 -3.53601,-6.2915 -6.25,-9.4375c-3.67798,1 -7.66901,0.19626 -11.875,-1.96875l3,-3.84375l-0.0625,-5.53125l10.71875,-0.1875c2.08398,-1.311 4.34552,-1.88025 5.9375,-5.15625l-0.125,-10.0625z" stroke-linecap="round" stroke="#000000" fill="#cccccc"/>
   <path id="Sudan" d="m893.90625,240.4375l-5.4375,5.53125l-4.46875,-1l-2.09375,9.03125l-9.65625,2.53125l-0.875,7.34375l-8.53125,0.96875l-4.0625,-4.25l-132.09375,4l1.59375,33.09375c-5.61603,0.42599 -11.40674,0.4425 -15.96875,-0.1875l0.25,10.53125l1.53125,62.59375l-17.90625,0.96875l0.21875,6.6875l-10.25,12.96875l0.65625,9.21875l-3.4375,1.5625c-0.328,5.75699 -0.98822,10.79901 -3.40625,12.375l0.125,7.46875l7.46875,-1.5625c1.50299,8.384 1.86926,17.19049 8.90625,23.5625l0.90625,5.59375l-3.34375,0.46875c5.64099,7.021 12.14978,13.59976 15.84375,21.59375c-6.26996,19.41937 2.64471,16.68637 8.0625,19.0625l0.03125,-0.28125l14.53125,-28.4375l8,0l5.5,0l4.5,8.625l6.5,-0.625l19.5625,0l0,-7.375l20.4375,0.65625l0.15625,5.84375l9.34375,-3l0,-5.6875l10.6875,-3.9375l16.15625,10.625l17.15625,-22l-1,-13.875l-5.9375,-4.4375l11.4375,0l0,-5.6875l6.5,2.625l6.03125,33.53125l7.46875,2.84375l4.46875,8.5l0,11.78125l7.71875,-2.84375l0.03125,0l-0.25,-20.40625l5.03125,-7.46875l5.09375,0.0625l2.5,-12.90625c6.034,-7.42499 8.40472,-16.94525 18.09375,-22.28125l3.0625,-24.40625c-1.76398,-17.22699 3.47076,-32.09924 5.96875,-47.90625c2.495,-1.02701 5.34698,0.86676 7.375,-3.90625l11.15625,-5.65625c2.20099,-1.466 2.94678,-4.90051 3.59375,-8.4375c-1.513,-3.379 -3.68152,-2.76849 -5.6875,-3.1875c-3.29303,-6.32599 -8.75702,-6.88275 -13.5,-9.34375l-6.625,-40.09375l-5.25,-5.5625c1.34003,-14.368 -15.57599,-16.916 -23.875,-25.5z" stroke-linecap="round" stroke="#000000" fill="#cccccc"/>
   <path d="m586.99109,1119.15991l26.84399,54.01599l0.35199,12.34998c-1.35699,2.97107 -3.58197,3.05798 -6.07098,2.57703c-1.008,1.41699 -1.953,3.25098 0.258,4.63196c3.32599,5.90503 5.73303,13.08704 9.97101,18.14709c3.48102,4.15796 8.646,6.33301 12.74097,9.9209l10.65906,0.85205c2.19397,-1.54102 0.19897,-3.64197 8.14996,-4.41602l15.61304,-0.10095c4.92896,-1.93604 -0.617,-6.81104 15.45898,-5.61707c2.64099,0.33398 3.78497,3.23206 7.927,0.99304c7.46301,-1.203 14.58899,1.64197 21.85999,2.73596c2.15503,-1.72192 1.35303,-4.65002 13.46002,-2.31091l1.23798,-4.70911l14.18903,0.22302l84.11395,-78.16699c13.34003,-5.53601 16.289,-21.68994 20.02704,-37.03894l-10.56104,-0.70703c-0.10901,-1.27905 -10.13898,5.896 -11.41095,6.03699c-5.42303,0.604 -8.55304,-1.14905 -7.77301,-10.64905c0.58099,-7.08093 8.16699,-12.72095 10.172,-14.03101c2.67499,-1.74792 5.34296,4.83911 8.00598,3.099c0,0 -0.94098,-30.12195 -2.06702,-55.31995c-5.664,-3.44598 -9.72595,-9.36798 -19.815,-5.97302c-5.297,-3.95795 -10.59399,-3.55298 -15.88995,-4.78894l-58.19,46.15002l-2.13605,9.64294c-6.61096,3.495 -13.22296,3.02002 -19.83398,3.72302c-5.008,-3.80798 -10.40399,-6.05701 -16.27301,-6.41406l-9.70697,8.49707c-0.90802,4.67896 -3.62799,5.12695 -5.71204,7.06091c-3.30298,1.91504 -5.02899,4.3551 -5.74597,7.13208c-9.78198,2.41895 -16.64398,0.82092 -23.01703,-1.448c1.229,-5.71997 4.90704,-9.43506 1.83905,-18.66907l-13.53101,-15.13501l-1.76001,64.99707c-4.09302,1.77197 -8.18604,4.46301 -12.27802,8.39197c-6.82202,-0.58398 -12.49097,-1.53101 -21.953,0.177c-1.534,-7.177 -8.08997,-19.04395 -19.15399,-5.85999z" id="Suedafrika" stroke-linecap="round" stroke="#000000" fill="#cccccc"/>
   <path d="m832.30511,1077.53894l0.75702,14.71204c-4.39801,2.19995 -7.66705,4.40002 -11.41302,6.60095c-4.10999,-0.10303 -6.742,-1.18103 -7.39301,-4.47095c-1.03699,-5.24109 -0.44598,-8.81104 2.46301,-13.21606c2.11401,-3.203 5.93701,-7.245 8.50098,-7.67395c1.31903,-0.22107 3.26703,1.75903 4.40399,3.42896l2.68103,0.61902z" id="Swasiland" stroke-linecap="round" stroke="#000000" fill="#cccccc"/>
   <path d="m879.48309,644.11084l-6.065,9.03601l-46.02197,0.78296l7.54297,15.49902c-11.88098,11.98804 -4.32501,14.25903 -1.5,18.89398c-5.211,9.70404 -9.21997,21.55603 -19.64398,21.95203c-2.62,0.659 -4.539,0.00299 -5.02899,3.224c-1.14801,7.53802 2.15698,23.151 5.18695,32.17102c3.10602,6.96198 8.59601,11.67297 11.57501,17.50397c2.745,4.04498 3.41803,8.09003 4.716,12.13501l6.38202,7.19897c2.69299,-0.79999 5.69299,-0.07495 9.94,6.89404l19.15399,6.323c4.13,3.828 10.65601,4.85901 17.06897,6.02399l10.04102,33.13397l18.76501,0.479c3.24402,-2.04095 6.487,-1.867 9.73199,2.35004c6.98499,-1.10101 13.22699,-2.94501 22.41302,-1.84503c2.90497,-3.117 6.51697,-5.44 12.53595,-5.05597c7.20905,5.74701 27.77002,-5.93799 36.62604,-11.659c-2.159,-3.896 -6.09698,-6.01501 -9.75299,-8.414c0.29498,-4.42999 -1.49304,-9.276 -3.091,-14.08502c-1.86304,-2.93799 -3.30103,-5.77002 -2.06903,-7.935l-4.35297,-9.51202l2.73096,-0.89099c-0.70996,-7.25299 -0.66095,-14.09796 3.66302,-18.63995c-2.96899,-6.14203 -13.07501,-11.01404 -12.495,-18.30005l8.63202,-24.30396l-22.90503,-15.17102l-3.79401,-13.51599l-69.98499,-44.27301z" id="Tasania" stroke-linecap="round" stroke="#000000" fill="#cccccc"/>
   <path d="m331.8811,534.46484l11.918,-3.43799l-7.90799,-61.99503c-1.01001,-4.72598 -5.70401,-6.81998 -9.28702,-9.70898l1.89902,-10.13199l-14.05301,-1.819c-2.63101,5.25699 -1.229,10.26099 5.146,14.95499c5.14999,21.00201 4.51001,41.177 6.12399,61.67303l6.16101,10.46497z" id="Togo" stroke-linecap="round" stroke="#000000" fill="#cccccc"/>
   <path d="m495.52011,10.18686c-3.01599,0.103 -14.83701,-6.059 -21.478,3.602c0,0 -5,2.215 -5.28101,7.344c-0.435,7.901 -1.18799,32.5 -1.18799,32.5c-0.83102,-1.329 -6.75302,-0.325 -7.68802,3.688c-1.271,5.454 -7.41901,4.026 -7.90604,6.781c-0.98099,5.547 3.86203,10.65 9.56305,15.625c1.461,1.276 -0.54199,8.334 0.90601,9.625c4.41498,3.939 12.25,6.625 12.25,6.625c1.81699,18.073 5.03098,30.563 5.03098,30.563c1.19101,0.745 13.819,-3.591 9.46503,-21.346c-0.504,-2.056 25.88297,-10.603 21.146,-27.118c-0.492,-1.717 -4.78799,0.316 -5.48502,-2.8c-1.565,-6.991 -1.36398,-8.71301 -4.021,-9.763c-1.33499,-0.527 -6.85699,4.77499 -7.979,4.098c-2.504,-1.513 -5.62799,-5.035 -4.276,-6.779c2.32901,-3.005 19.15701,-13.436 19.32501,-19.187c0.25101,-8.559 -2.90799,-9.384 -7.10501,-11.663c-2.384,-1.294 -1.52698,-5.349 -0.75598,-7.662c0.47299,-1.418 9.55798,-4.51 8.50998,-7.796c-0.711,-2.229 -2.02899,-2.571 -2.51199,-4.314c-0.35599,-1.286 -7.22101,5.885 -7.65399,4.777c-1.14502,-2.921 -1.48901,-4.709 -2.867,-6.8z" id="Tunesien" stroke-linecap="round" stroke="#000000" fill="#cccccc"/>
   <path d="m712.36011,307.75586l-130.17902,-64.10899l-17.24298,5.211c1.17999,10.18498 0.31201,18.06999 0.495,24.304c0.26801,9.13998 6.62799,15.548 15.34802,18.638l-3.86005,9.39398l-5.54797,50.30002l-27.16901,29.89798c-0.862,1.69601 -1.34198,3.39301 -1.23999,5.08902c-0.85999,1.94501 -1.96503,2.793 -3.14398,3.302c-1.89703,1.17798 -0.961,3.16901 -1.18103,4.64798c-1.58002,10.59802 20.57703,26.29401 20.57703,26.29401c1.14099,4.78799 2.828,9.04102 3.67401,14.095c0.91199,5.44901 -1.75604,12.02499 -0.98804,16.74701c1.11499,6.854 8.72101,7.54199 7.68103,18.005l-17.44403,-1.60501c-5.06299,10.10699 -1.52002,16.69299 10.91302,19.64401l8.21198,24.51498c13.19202,-3.01099 22.48199,-1.40903 39.71698,-9.19699l15.67999,-1.55301c2.89203,-4.93298 9.013,-7.55899 6.914,-16.05499l21.69702,-2.36899c1.69598,-1.58005 2.51001,-4.04202 5.26501,-4.56302c4.25299,-0.13202 5.49701,-2.89603 6.63501,-5.75299c1.98199,-4.69699 6.979,-6.38 10.73401,-9.306c0.677,-15.492 12.38696,-11.05704 19.52301,-13.98804l-0.854,-5.37601c-4.08405,-4.453 -7.60602,-9.50699 -8.88403,-23.677l-7.61298,1.431l-0.16803,-6.88696c2.33099,-2.5 4.005,-8.43103 3.40802,-12.64603l3.54498,-1.66296l-0.87299,-8.95401l10.47998,-13.39603l-0.32501,-6.56299l18.06403,-0.95001l-1.849,-62.90497z" id="Tschad" stroke-linecap="round" stroke="#000000" fill="#cccccc"/>
   <path d="m833.6651,575.04889l3.30402,-2.50403c13.28198,3.388 27.125,1.44806 40.96698,-0.47998l8.29102,-6.85797c4.70697,2.77197 8.229,7.52698 8.935,17.44696l7.97601,6.37799l0,19.36902l-29.68304,44.68298l-46.276,0.85504l-7.08197,5.73798l-2.76398,0.05402l-1.591,-2.12799l1.06195,-27.60803l10.37201,-15.74097l16.54303,-14.84003l-10.00104,-6.323l-0.05701,-18.04199l0.00403,0z" id="Uganda" stroke-linecap="round" stroke="#000000" fill="#cccccc"/>
   <path d="m116.5321,262.88586c2.054,-14.69702 -7.083,-35.35201 21.465,-35.94101l5.99001,-44.427l50.916,4.492l3.87001,-29.992l-68.104,-5.03c-6.32,9.701 -9.98901,17.914 -19.53001,21.69801c-9.004,3.571 -12.52599,14.683 -15.073,24.30699l-26.8,30.666c-0.965,6.963 -5.012,11.61501 -10.427,15.24001c-4.896,6.405 -7.887,14.36301 -8.639,21.439l6.829,-6.19101l59.503,3.73901l-0.00002,0z" id="Westsahara" stroke-linecap="round" stroke="#000000" fill="#cccccc"/>
   <path d="m571.3631,511.99487l-15.38202,25.23199l2.06305,18.34503c6.573,12.91095 14.23499,24.84094 24.45197,34.47296c6.34003,-7.05701 9.12799,-12.49799 21.68604,-15.74896l10.92596,4.75l12.25403,-3.44904c3.03699,-3.52698 2.79095,-9.10797 3.02899,-14.38696c4.211,-6.86902 8.74799,-10.479 13.31897,-13.74902c3.388,2.62097 9.38702,0.60101 9.83899,8.43896c4.01404,4.51605 7.80005,7.20801 10.72504,3.01801c3.39197,5.01501 17.80701,3.414 27.72498,4.513c0.57202,-1.86096 1.62402,-4.32001 3.65399,-8.00397c3.32104,-0.50403 6.30701,-1.81104 11.37305,1.87598l20.94598,-7.328l1.36401,3.09204l8.37799,-1.34601l-0.146,-3.12l18.50696,-1.53705l4.12103,5.29102l1.909,-2.86096l3.16101,2.30695l2.664,-3.06097l8.625,-0.33698c-1.76404,-4.888 -1.01202,-10.68402 -14.08301,-13.76501l-6.72101,-13.729c-6.73798,-6.45001 -18.68097,-9.43097 -19.552,-19.793l-5.16498,-4.98999c-4.37701,0.20401 -8.18799,2.10098 -13.065,-5.81302c-7.88202,-1.198 -13.23102,-2.43295 -8.05402,-18.396c-4.04901,-9.77399 -10.23499,-14.40201 -15.604,-21.867c-11.29999,2.16101 -15.836,1.58401 -16.23401,13.267c-3.58899,2.858 -8.85999,4.315 -10.5,8.79901c-1.422,3.31302 -2.59698,5.86499 -7.62396,6.29404c-1.43402,0.88498 -3.17303,2.68594 -4.96802,4.655l-21.414,2.233c1.12201,4.02795 0.68799,7.659 -3.92102,12.155c-1.229,1.20099 -2.112,2.672 -3.26099,3.96399l-15.41998,1.435c-17.82599,7.86499 -26.77301,6.19501 -39.60602,9.14301l0,-0.00003z" id="Zentralafrikanische_Republik" stroke-linecap="round" stroke="#000000" fill="#cccccc"/>
   <path d="m778.10107,1147.39893c-1.20703,0.11401 -3.31299,0.46802 -4.82501,1.07202c-1.11298,0.44495 -2.11902,0.91296 -2.94897,1.74304c-0.67401,0.67395 -0.854,1.67297 -1.07202,2.547c-0.229,0.91394 -2.08197,2.09595 -2.815,2.27893c-1.02698,0.25696 -2.41296,0 -3.48499,0c-2.14502,0 -3.16602,-0.46899 -4.42401,-2.146c-1.534,-2.04602 -3.46002,-3.62195 -4.82501,-5.89697c-0.96698,-1.60999 -1.84796,-2.59302 -2.41296,-4.29004c-0.42505,-1.27295 -0.26904,-2.68799 -0.26904,-4.021c0,-1.71399 0.789,-3.276 2.27899,-4.021c0.17902,-0.08997 0.35706,-0.17896 0.53601,-0.26904c1.75201,-0.87598 2.18805,-2.85693 3.48505,-4.15491c1.42896,-1.42908 3.28094,-2.69702 4.82599,-4.021c0.98096,-0.84204 2.383,-1.59399 3.48401,-2.14502c1.69299,-0.84705 3.30798,-1.29602 5.09497,-1.74304c1.341,-0.33496 2.90302,-0.79297 4.021,-1.07202c0.22101,-0.05493 0.44598,-0.08899 0.66998,-0.13391c0.224,-0.04504 0.44702,-0.09009 0.67004,-0.13403c1.57996,-0.31604 3.57196,0.47302 4.42401,1.60803c1.16699,1.55591 2.62799,3.05701 3.75397,4.55798c0.58801,0.78491 0.55298,2.71399 1.07202,3.75293c0.74097,1.48401 1.62201,2.58801 2.14496,4.15601c0.53503,1.60498 -0.23499,3.28601 -0.93799,4.69104c-0.836,1.67297 -1.96698,2.63794 -3.21698,3.88794c-1.02301,1.02307 -2.11603,1.854 -3.21802,2.68103c-0.58099,0.43604 -1.36499,0.68506 -2.01099,1.07202z" id="Lesotho" stroke-linecap="round" stroke="#000000" fill="#cccccc"/>
  </g>
 </g>
</svg>